<?xml version="1.0" standalone="no"?>
<!DOCTYPE svg PUBLIC "-//W3C//DTD SVG 20010904//EN"
 "http://www.w3.org/TR/2001/REC-SVG-20010904/DTD/svg10.dtd">
<svg version="1.0" xmlns="http://www.w3.org/2000/svg"
 width="16.000000pt" height="16.000000pt" viewBox="0 0 16.000000 16.000000"
 preserveAspectRatio="xMidYMid meet">
<metadata>
Created by potrace 1.11, written by Peter Selinger 2001-2013
</metadata>
<g transform="translate(0.000000,16.000000) scale(0.006154,-0.006154)"
fill="#000000" stroke="none">
<path d="M1136 2569 c-548 -76 -975 -478 -1093 -1029 -25 -118 -25 -372 0
-490 99 -465 418 -827 858 -974 140 -47 232 -61 404 -61 172 0 264 14 404 61
440 147 759 509 858 974 13 62 18 129 18 245 0 116 -5 183 -18 245 -111 521
-497 908 -1012 1015 -96 20 -323 28 -419 14z m410 -350 c182 -25 219 -50 291
-199 88 -182 133 -339 133 -459 0 -46 2 -48 52 -81 37 -25 60 -50 78 -85 25
-49 25 -53 28 -324 2 -151 1 -289 -2 -306 -4 -18 -23 -51 -44 -75 -38 -45
-192 -151 -247 -171 -16 -5 -43 -29 -60 -51 -16 -23 -55 -55 -85 -72 l-55 -31
-325 0 -325 0 -55 31 c-30 17 -68 49 -85 72 -16 22 -44 46 -60 51 -55 20 -209
126 -247 171 -21 24 -40 57 -44 75 -3 17 -4 155 -2 306 3 271 3 275 28 324 18
35 41 60 78 85 50 33 52 35 52 81 0 120 45 277 133 459 61 125 80 145 172 174
28 9 77 20 110 25 88 13 391 13 481 0z"/>
<path d="M1075 2139 c-137 -20 -203 -62 -191 -124 15 -75 146 -232 294 -353
62 -51 64 -52 132 -52 68 0 70 1 132 52 148 121 279 278 294 353 12 63 -53
103 -201 125 -84 12 -376 11 -460 -1z"/>
<path d="M798 1862 c-36 -92 -58 -183 -65 -264 l-6 -68 29 0 c27 0 32 6 68 93
21 50 43 120 49 154 10 55 9 66 -9 98 -32 61 -38 60 -66 -13z"/>
<path d="M1761 1884 c-34 -57 -25 -119 39 -271 32 -76 37 -83 64 -83 l29 0 -6
68 c-11 115 -73 322 -97 322 -5 0 -17 -16 -29 -36z"/>
<path d="M946 1729 c-3 -17 -28 -85 -56 -150 -28 -66 -57 -148 -66 -182 -21
-88 -29 -335 -15 -512 17 -234 61 -356 147 -415 l38 -25 316 0 316 0 38 25
c50 34 91 101 115 190 46 165 53 596 12 750 -10 41 -34 107 -51 145 -18 39
-42 100 -55 137 l-21 68 -35 -36 c-19 -20 -71 -67 -116 -106 l-83 -70 0 -126
0 -125 34 -33 c37 -36 46 -67 46 -164 0 -97 -9 -128 -46 -164 -34 -33 -34 -33
-34 -130 0 -137 1 -136 -120 -136 -121 0 -120 -1 -120 136 0 97 0 97 -34 130
-37 36 -46 67 -46 164 0 97 9 128 46 164 l34 33 0 125 0 126 -57 48 c-32 27
-86 75 -119 107 l-61 58 -7 -32z"/>
<path d="M1270 1415 l0 -115 40 0 40 0 0 115 0 115 -40 0 -40 0 0 -115z"/>
<path d="M701 1440 c-39 -9 -77 -35 -105 -74 -20 -26 -21 -43 -24 -310 l-3
-283 26 -31 c22 -27 153 -122 168 -122 2 0 -2 26 -9 58 -25 102 -40 434 -26
584 6 73 15 145 18 161 7 29 6 29 -45 17z"/>
<path d="M1874 1422 c3 -15 12 -87 18 -160 14 -150 -1 -482 -26 -584 -7 -32
-11 -58 -9 -58 14 0 145 95 167 121 l26 31 0 261 c0 144 -4 277 -10 296 -17
59 -68 101 -139 115 -32 6 -33 5 -27 -22z"/>
<path d="M1202 1198 c-16 -16 -16 -180 0 -196 16 -16 200 -16 216 0 16 16 16
180 0 196 -7 7 -24 12 -40 12 -27 0 -27 -1 -30 -66 -3 -74 -21 -99 -55 -78
-14 8 -19 27 -21 78 -3 65 -3 66 -30 66 -16 0 -33 -5 -40 -12z"/>
<path d="M1270 825 l0 -75 40 0 40 0 0 75 0 75 -40 0 -40 0 0 -75z"/>
</g>
</svg>
